# xmcd
#
# Track frame offsets:
# 150
# 21732
# 41270
#
# Disc length: 808 seconds
#
#
# Revision: 0
# Processed by: cddbd v1.5.1PL0 Copyright (c) Steve Scherf et al.
# Submitted via: FreeRIP 2.80 
#
DISCID=1f032603
DTITLE=garth brooks - that summer
DYEAR=1992
DGENRE=country
TTITLE0=that summer
TTITLE1=shameless
TTITLE2=friends in low places
EXTD=
EXTT0=
EXTT1=
EXTT2=
PLAYORDER=
